<svg xmlns="http://www.w3.org/2000/svg"  viewBox="0 0 50 50" width="30px" height="20px"><path d="M 14.181641 5 C 9.1216406 5 5 9.1216406 5 14.181641 L 5 35.818359 C 5 40.877359 9.1216406 45 14.181641 45 L 35.818359 45 C 40.877359 45 45 40.878359 45 35.818359 L 45 14.181641 C 45 9.1216406 40.878359 5 35.818359 5 L 14.181641 5 z M 14.181641 7 L 35.818359 7 C 39.796359 7 43 10.202641 43 14.181641 L 43 35.818359 C 43 39.797359 39.797359 43 35.818359 43 L 14.181641 43 C 10.202641 43 7 39.797359 7 35.818359 L 7 14.181641 C 7 10.202641 10.202641 7 14.181641 7 z M 16.882812 14.335938 C 16.882812 14.335938 14.136359 18.329672 18.568359 21.513672 C 18.568359 21.513672 16.883312 22.700766 17.570312 25.634766 C 17.570313 25.634766 17.182391 26.497031 15.275391 26.832031 L 14.15625 26.951172 C 13.91625 26.962172 13.661672 26.967891 13.388672 26.962891 C 13.388672 26.962891 12.700672 29.067406 12.263672 29.566406 C 11.826672 30.065406 10.328625 29.629906 10.515625 30.878906 C 10.702625 32.127906 11.954828 31.996094 12.548828 31.996094 C 13.038828 31.996094 14.011266 32.065359 15.322266 29.193359 C 15.322266 29.193359 19.960453 31.297313 22.564453 27.445312 C 22.564453 27.445312 24.561094 28.380359 26.621094 28.193359 C 28.681094 28.006359 29.306641 26.820312 29.306641 26.820312 L 30.742188 28.257812 L 36.173828 26.384766 C 36.173828 26.384766 36.547875 27.569813 37.421875 27.507812 C 38.295875 27.444813 39.731875 25.947719 37.921875 24.511719 C 37.921875 24.511719 34.549281 24.822266 33.613281 24.822266 C 32.677281 24.822266 31.246141 23.055141 33.244141 21.369141 L 36.302734 21.369141 C 36.302734 21.369141 38.171875 21.327078 37.921875 19.080078 C 37.921875 19.080078 35.861328 18.892078 35.486328 18.455078 C 35.112328 18.018078 35.674734 16.956031 33.427734 16.332031 C 31.180734 15.707031 30.492188 16.394531 30.492188 16.394531 C 30.492188 16.394531 29.930641 15.770031 28.931641 16.207031 C 27.932641 16.644031 27.058594 16.394531 27.058594 16.394531 C 27.058594 16.394531 27.496141 18.267078 29.494141 17.830078 C 29.516141 18.803078 29.167516 19.523828 28.603516 20.048828 C 27.214516 21.340828 24.519172 21.455828 22.826172 21.298828 C 22.070172 21.228828 21.203547 21.099922 20.310547 20.669922 C 18.278547 19.691922 17.023812 18.224938 16.882812 14.335938 z"/></svg>